<svg xmlns="http://www.w3.org/2000/svg" viewBox="0 0 121.16 278.59">
    <title>pendu</title>
    <g style="isolation:isolate">
        <g id="pendu">
            <path id="chausette-droite" d="M71.15,261.63l-.18,14a4.39,4.39,0,0,1-8.75-.11l.18-14Z"
                  transform="translate(-5.68 -6.82)" fill="#b73c11"/>
            <g id="jambe_ombre-droite" data-name="jambe+ombre-droite">
                <path id="jambe-droite" d="M60.54,269.38l1.6-121.87a6.6,6.6,0,0,1,13.16.17L73.7,269.39Z"
                      transform="translate(-5.68 -6.82)" fill="#2e2b33"/>
                <path id="ombre-jambe"
                      d="M53.2,137c11.71,0,21.22,10.62,21.22,23.72v4.84H32v-4.84C32,147.66,41.47,137,53.2,137Z"
                      transform="translate(-5.68 -6.82)" fill="#0e0f2d"/>
            </g>
            <path id="chausette-gauche" d="M38.68,262.74l-.76,14.15a4.45,4.45,0,0,1-8.86-.5l.75-14.1Z"
                  transform="translate(-5.68 -6.82)" fill="#b73c11"/>
            <path id="jambe-droite-2" data-name="jambe-droite"
                  d="M27.9,268.47c2.15-41.37,3.58-79.59,4.54-121.05a6.34,6.34,0,0,1,6.7-5.93,6.35,6.35,0,0,1,6.46,6.22c-1,41.45-2.4,79.58-4.55,121Z"
                  transform="translate(-5.68 -6.82)" fill="#2e2b33"/>
            <path id="chaussure-droite"
                  d="M81.74,278a4.47,4.47,0,0,1-4.44-4v-.73a2.65,2.65,0,0,0-2.65-2.64H73.06a1.86,1.86,0,0,0-1.86,1.86V273a3.16,3.16,0,0,1-3.14,3H63.57a2.88,2.88,0,0,0-2.88,2.88v6.52H93v-1.7a5.71,5.71,0,0,0-5.7-5.71Z"
                  transform="translate(-5.68 -6.82)" fill="#0e0f2d"/>
            <path id="chaussure-gauche"
                  d="M49,278a4.49,4.49,0,0,1-4.46-4s0-.73,0-.73a2.66,2.66,0,0,0-2.66-2.66H38.83A1.88,1.88,0,0,0,37,272.42v.52a3.19,3.19,0,0,1-3.17,3H29.26a2.9,2.9,0,0,0-2.9,2.89v6.57H56V283.7A5.75,5.75,0,0,0,50.23,278Z"
                  transform="translate(-5.68 -6.82)" fill="#2e2b33"/>
            <g id="bras-droit">
                <path d="M100.18,96.3v24.47a11.66,11.66,0,0,1-11.67,11.67h0a11.68,11.68,0,0,1-11.66-12.22l2.22-46.8"
                      transform="translate(-5.68 -6.82)" fill="none" stroke="#0e0f2d" stroke-linecap="round"
                      stroke-miterlimit="10" stroke-width="10.46"/>
                <line x1="94.5" y1="86.96" x2="94.5" y2="89.48" fill="none" stroke="#f1f1f2" stroke-linecap="round"
                      stroke-miterlimit="10" stroke-width="10.46"/>
            </g>
            <g id="torse">
                <path d="M58.9,60.87l4.16,4.32a105,105,0,0,1,16.47,2.86L77.85,92.34v62.4H28.9V92.34L27.7,74.87a7.94,7.94,0,0,1,6.48-8.36,107.59,107.59,0,0,1,19.2-1.8Z"
                      transform="translate(-5.68 -6.82)" fill="#ece6e1"/>
                <polygon points="44.72 70.39 37.2 58.39 41.86 54.05 50.97 63.94 44.72 70.39" fill="#ece6e1"/>
                <polygon points="44.72 70.39 51.06 64.05 57.4 70.39 44.72 70.39" fill="#d8d0bc"/>
                <path d="M63.13,65.19v12l7.1-8.72.2-2.34C68,65.75,65.56,65.42,63.13,65.19Z"
                      transform="translate(-5.68 -6.82)" fill="#d8d0bc"/>
                <path d="M42.92,65.27,63.13,97.58V65.19a106.44,106.44,0,0,1,16.4,2.86l-.14,24.29v66.83h-52l1.53-28.09L27.37,92.34l-.11-17.89a7.94,7.94,0,0,1,6.46-7.85C36.75,66,39.84,65.58,42.92,65.27Z"
                      transform="translate(-5.68 -6.82)" fill="#2e2b33"/>
                <path d="M30,131.68a3.41,3.41,0,0,0,3.41,3.42h13a3.42,3.42,0,0,0,3.42-3.42h0a3.42,3.42,0,0,0-3.42-3.42h-13A3.41,3.41,0,0,0,30,131.68Z"
                      transform="translate(-5.68 -6.82)" fill="#2e2b33"/>
                <path d="M60.19,104.59a1.9,1.9,0,1,0,1.9-1.89A1.91,1.91,0,0,0,60.19,104.59Z"
                      transform="translate(-5.68 -6.82)" fill="#929497"/>
                <path d="M60.19,119.44a1.9,1.9,0,1,0,1.9-1.9A1.9,1.9,0,0,0,60.19,119.44Z"
                      transform="translate(-5.68 -6.82)" fill="#929497"/>
                <polygon
                        points="54.75 71.76 57.4 80.72 57.44 90.76 51.41 81.11 52.3 71.83 47.16 67.87 50.98 64.38 54.78 67.86 54.75 71.76"
                        fill="#b73c11"/>
                <path d="M30,135.1a3.4,3.4,0,0,0,3.41,3.41h13a3.41,3.41,0,0,0,3.42-3.41h0a3.42,3.42,0,0,0-3.42-3.42h-13A3.41,3.41,0,0,0,30,135.1Z"
                      transform="translate(-5.68 -6.82)" fill="#0e0f2d"/>
                <polygon points="57.73 152.72 48.71 152.72 57.73 126.57 57.73 152.72" fill="#0e0f2d"/>
            </g>
            <g id="barre">
                <path d="M83.2,121.26a7.63,7.63,0,1,1,7.64,7.63A7.64,7.64,0,0,1,83.2,121.26Z"
                      transform="translate(-5.68 -6.82)" fill="#0e0f2d"/>
                <path d="M70.07,132.41a23.6,23.6,0,0,0,20.77,12.42c.23,0,.46,0,.68,0a23.56,23.56,0,0,0,0-47.11c-.22,0-.45,0-.68,0a23.59,23.59,0,0,0-23.58,23.58A23.32,23.32,0,0,0,70.07,132.41Zm20.77-29.25a18.12,18.12,0,1,1-15.48,8.72A18.1,18.1,0,0,1,90.84,103.16Z"
                      transform="translate(-5.68 -6.82)" fill="#0e0f2d"/>
                <path d="M93.89,83.19a2.18,2.18,0,0,0-4.36,0v10h4.36Z" transform="translate(-5.68 -6.82)"
                      fill="#a8755a"/>
                <rect x="83.85" y="90.86" width="4.36" height="23.57" fill="#996650"/>
                <rect x="83.85" y="86.34" width="4.36" height="5.69" fill="#f6921e"/>
                <g opacity="0.15" style="mix-blend-mode:multiply">
                    <path d="M90.89,95.53c-.45,0-.91,0-1.36.08v2.18c.49-.05,1-.08,1.49-.09.22,0,.45,0,.68,0,.74,0,1.47,0,2.19.1V95.6q-1.08-.09-2.19-.09C91.46,95.51,91.19,95.51,90.89,95.53Z"
                          transform="translate(-5.68 -6.82)" fill="#1a3b51"/>
                    <path d="M89.53,103.29v2.19a15.61,15.61,0,0,1,2.17-.15,15.9,15.9,0,0,1,2.19.15v-2.19a17.64,17.64,0,0,0-2.19-.14A17.32,17.32,0,0,0,89.53,103.29Z"
                          transform="translate(-5.68 -6.82)" fill="#1a3b51"/>
                </g>
                <path d="M89.53,111.25v2.69a7.45,7.45,0,0,1,2.17-.32,7.53,7.53,0,0,1,2.19.32v-2.69A9.93,9.93,0,0,0,91.7,111,9.75,9.75,0,0,0,89.53,111.25Z"
                      transform="translate(-5.68 -6.82)" fill="#1a3b51" opacity="0.15" style="mix-blend-mode:multiply"/>
                <rect x="83.85" y="114.43" width="4.36" height="23.57" fill="#996650"/>
                <rect x="83.85" y="136.84" width="4.36" height="5.69" fill="#f6921e"/>
                <path d="M89.53,159.31a2.18,2.18,0,1,0,4.36,0v-10H89.53Z" transform="translate(-5.68 -6.82)"
                      fill="#a8755a"/>
                <g opacity="0.15" style="mix-blend-mode:multiply">
                    <path d="M92.52,147c.46,0,.91,0,1.37-.08v-2.17c-.49,0-1,.07-1.49.09-.22,0-.45,0-.68,0-.74,0-1.47,0-2.19-.1v2.17c.72.06,1.45.1,2.19.1A7.59,7.59,0,0,0,92.52,147Z"
                          transform="translate(-5.68 -6.82)" fill="#1a3b51"/>
                    <path d="M93.89,139.21V137a17.32,17.32,0,0,1-2.17.15,17.64,17.64,0,0,1-2.19-.15v2.18a17.52,17.52,0,0,0,2.19.14A17.32,17.32,0,0,0,93.89,139.21Z"
                          transform="translate(-5.68 -6.82)" fill="#1a3b51"/>
                </g>
                <path d="M93.89,131.26v-2.69a7.8,7.8,0,0,1-2.17.32,7.49,7.49,0,0,1-2.19-.33v2.7a10.5,10.5,0,0,0,2.19.23A10.38,10.38,0,0,0,93.89,131.26Z"
                      transform="translate(-5.68 -6.82)" fill="#1a3b51" opacity="0.15" style="mix-blend-mode:multiply"/>
                <rect x="79.32" y="103.57" width="4.36" height="23.57" transform="translate(-64.83 121.44) rotate(-60)"
                      fill="#996650"/>
                <rect x="67.66" y="105.78" width="4.36" height="5.69" transform="translate(-64.83 108) rotate(-60.01)"
                      fill="#f6921e"/>
                <path d="M59.84,100.33a2.18,2.18,0,0,0-2.18,3.78l8.63,5,2.18-3.77Z" transform="translate(-5.68 -6.82)"
                      fill="#a8755a"/>
                <g opacity="0.15" style="mix-blend-mode:multiply">
                    <path d="M69,109.1c-.22.4-.42.81-.62,1.22l1.79,1,.1.06c.2-.45.43-.9.66-1.34q.15-.3.33-.6c.37-.64.76-1.25,1.18-1.84l-.09,0-1.8-1c-.41.59-.8,1.21-1.17,1.84A7.88,7.88,0,0,0,69,109.1Z"
                          transform="translate(-5.68 -6.82)" fill="#1a3b51"/>
                    <path d="M75.06,114.16,77,115.25a19.7,19.7,0,0,1,1-2,15.15,15.15,0,0,1,1.23-1.81l-1.89-1.1A17.63,17.63,0,0,0,76,112.21C75.67,112.85,75.35,113.5,75.06,114.16Z"
                          transform="translate(-5.68 -6.82)" fill="#1a3b51"/>
                </g>
                <path d="M82,118.14l2.34,1.35a7.46,7.46,0,0,1,.8-2,7.35,7.35,0,0,1,1.38-1.73l-2.33-1.35a10,10,0,0,0-1.3,1.78A10.18,10.18,0,0,0,82,118.14Z"
                      transform="translate(-5.68 -6.82)" fill="#1a3b51" opacity="0.15" style="mix-blend-mode:multiply"/>
                <rect x="99.74" y="115.36" width="4.36" height="23.57" transform="translate(-64.84 145.02) rotate(-60)"
                      fill="#996650"/>
                <rect x="111.39" y="131.03" width="4.36" height="5.69" transform="translate(-64.84 158.46) rotate(-60)"
                      fill="#f6921e"/>
                <path d="M123.58,142.17a2.18,2.18,0,0,0,2.18-3.77l-8.63-5L115,137.19Z"
                      transform="translate(-5.68 -6.82)" fill="#a8755a"/>
                <g opacity="0.15" style="mix-blend-mode:multiply">
                    <path d="M114.4,133.41c.21-.4.41-.81.61-1.23l-1.79-1-.1-.05c-.21.44-.43.89-.67,1.33a4.3,4.3,0,0,1-.32.6c-.37.64-.77,1.26-1.18,1.85l.09.05,1.79,1c.42-.6.81-1.21,1.18-1.85C114.13,133.91,114.27,133.67,114.4,133.41Z"
                          transform="translate(-5.68 -6.82)" fill="#1a3b51"/>
                    <path d="M108.35,128.34l-1.89-1.09a16.83,16.83,0,0,1-.95,2,16.57,16.57,0,0,1-1.23,1.82l1.89,1.09a16.56,16.56,0,0,0,1.21-1.83A16.09,16.09,0,0,0,108.35,128.34Z"
                          transform="translate(-5.68 -6.82)" fill="#1a3b51"/>
                </g>
                <path d="M101.46,124.37,99.13,123a7.24,7.24,0,0,1-.81,2A7.32,7.32,0,0,1,97,126.8l2.33,1.34a9.61,9.61,0,0,0,1.3-1.77A10.07,10.07,0,0,0,101.46,124.37Z"
                      transform="translate(-5.68 -6.82)" fill="#1a3b51" opacity="0.15" style="mix-blend-mode:multiply"/>
                <rect x="69.71" y="124.97" width="23.57" height="4.36" transform="translate(-58.33 50.96) rotate(-30)"
                      fill="#996650"/>
                <rect x="67" y="131.7" width="5.69" height="4.36" transform="translate(-63.26 46.03) rotate(-30)"
                      fill="#f6921e"/>
                <path d="M57.65,138.4a2.18,2.18,0,0,0,2.19,3.77l8.63-5-2.18-3.78Z" transform="translate(-5.68 -6.82)"
                      fill="#a8755a"/>
                <g opacity="0.15" style="mix-blend-mode:multiply">
                    <path d="M69.84,134.82q.36.59.75,1.14l1.79-1,.1-.06c-.29-.4-.56-.82-.83-1.24l-.36-.58c-.36-.64-.7-1.29-1-2l-.09.05-1.79,1c.3.66.64,1.3,1,1.94A8,8,0,0,0,69.84,134.82Z"
                          transform="translate(-5.68 -6.82)" fill="#1a3b51"/>
                    <path d="M77.24,132.12l1.9-1.09a15.08,15.08,0,0,1-1.22-1.81,15.56,15.56,0,0,1-1-2l-1.9,1.09a18.85,18.85,0,0,0,1,2A17.89,17.89,0,0,0,77.24,132.12Z"
                          transform="translate(-5.68 -6.82)" fill="#1a3b51"/>
                </g>
                <path d="M84.13,128.14l2.34-1.34a7.52,7.52,0,0,1-1.37-1.73,7.3,7.3,0,0,1-.81-2L82,124.37a11.52,11.52,0,0,0,.89,2A10.92,10.92,0,0,0,84.13,128.14Z"
                      transform="translate(-5.68 -6.82)" fill="#1a3b51" opacity="0.15" style="mix-blend-mode:multiply"/>
                <rect x="90.13" y="113.18" width="23.57" height="4.36" transform="translate(-49.7 59.58) rotate(-30)"
                      fill="#996650"/>
                <rect x="110.73" y="106.45" width="5.69" height="4.36"
                      transform="translate(-44.79 64.55) rotate(-30.01)" fill="#f6921e"/>
                <path d="M125.76,104.11a2.18,2.18,0,0,0-2.18-3.78l-8.63,5,2.18,3.78Z" transform="translate(-5.68 -6.82)"
                      fill="#a8755a"/>
                <g opacity="0.15" style="mix-blend-mode:multiply">
                    <path d="M113.58,107.69c-.24-.39-.49-.77-.76-1.15l-1.78,1-.1,0c.28.4.56.82.82,1.25a5.65,5.65,0,0,1,.36.58c.37.64.7,1.29,1,1.94l.09-.05,1.79-1c-.31-.66-.64-1.31-1-1.95A7.94,7.94,0,0,0,113.58,107.69Z"
                          transform="translate(-5.68 -6.82)" fill="#1a3b51"/>
                    <path d="M106.17,110.38l-1.89,1.1a17.22,17.22,0,0,1,1.22,1.8,15.56,15.56,0,0,1,1,2l1.89-1.09a17.82,17.82,0,0,0-1-2A17.42,17.42,0,0,0,106.17,110.38Z"
                          transform="translate(-5.68 -6.82)" fill="#1a3b51"/>
                </g>
                <path d="M99.28,114.36,97,115.71a7.47,7.47,0,0,1,1.37,1.72,7.68,7.68,0,0,1,.81,2.06l2.33-1.35a9.94,9.94,0,0,0-.89-2A10,10,0,0,0,99.28,114.36Z"
                      transform="translate(-5.68 -6.82)" fill="#1a3b51" opacity="0.15" style="mix-blend-mode:multiply"/>
                <path d="M84,121.26a7.63,7.63,0,1,1,7.63,7.63A7.64,7.64,0,0,1,84,121.26Z"
                      transform="translate(-5.68 -6.82)" fill="#0e0f2d"/>
                <path d="M85,121.26a7.63,7.63,0,1,1,7.63,7.63A7.64,7.64,0,0,1,85,121.26Z"
                      transform="translate(-5.68 -6.82)" fill="#a8755a"/>
                <path d="M71,132.41a23.6,23.6,0,0,0,20.77,12.42c.23,0,.46,0,.68,0a23.55,23.55,0,0,0,22.88-23.55,23.29,23.29,0,0,0-2.81-11.15A23.55,23.55,0,0,0,92.4,97.7c-.22,0-.45,0-.68,0a23.59,23.59,0,0,0-23.58,23.58A23.32,23.32,0,0,0,71,132.41Zm20.77-29.25a18.1,18.1,0,1,1-15.49,8.72A18.08,18.08,0,0,1,91.72,103.16Z"
                      transform="translate(-5.68 -6.82)" fill="#0e0f2d"/>
                <path d="M72,132.41A23.6,23.6,0,0,0,92.8,144.83c.24,0,.47,0,.69,0a23.58,23.58,0,0,0,22.88-23.55,23.29,23.29,0,0,0-2.81-11.15A23.55,23.55,0,0,0,93.49,97.7c-.22,0-.45,0-.69,0a23.62,23.62,0,0,0-23.58,23.58A23.33,23.33,0,0,0,72,132.41ZM92.8,103.16a18.1,18.1,0,1,1-15.48,8.72A18.09,18.09,0,0,1,92.8,103.16Z"
                      transform="translate(-5.68 -6.82)" fill="#a8755a"/>
            </g>
            <g id="main-droite">
                <path d="M85.64,91.34a4.3,4.3,0,0,1-.29-.78,5,5,0,0,1,3.41-6.12A13.58,13.58,0,0,1,103,89.31a5,5,0,0,1-7.74,6.19A3.81,3.81,0,0,0,91.46,94,5,5,0,0,1,85.64,91.34Z"
                      transform="translate(-5.68 -6.82)" fill="#ffa685"/>
            </g>
            <g id="bras-gauche">
                <path d="M52.39,130.7,19,119.15a12,12,0,0,1-6-18.26l19.5-28" transform="translate(-5.68 -6.82)"
                      fill="none" stroke="#2e2b33" stroke-linecap="round" stroke-miterlimit="10" stroke-width="10.46"/>
                <line x1="51.91" y1="125.68" x2="46.7" y2="123.88" fill="none" stroke="#f1f1f2" stroke-linecap="round"
                      stroke-miterlimit="10" stroke-width="10.46"/>
                <path d="M52.21,132.6a4.74,4.74,0,0,1,0-.84,5,5,0,0,1,5.61-4.19,13.55,13.55,0,0,1,11,10.23,5,5,0,0,1-9.59,2.5,3.81,3.81,0,0,0-2.82-2.93A4.94,4.94,0,0,1,52.21,132.6Z"
                      transform="translate(-5.68 -6.82)" fill="#ffa685"/>
            </g>
            <g id="tete">
                <path d="M53.38,41.21a5.52,5.52,0,0,0-5.53,5.52v18.5l8.8,5.53,2.25-5.53V46.73A5.52,5.52,0,0,0,53.38,41.21Z"
                      transform="translate(-5.68 -6.82)" fill="#ffa685"/>
                <path d="M74.16,19.76V42.93a21.68,21.68,0,0,1-7.09,14.21c-.6.13-9.48,0-9.62,0A17.78,17.78,0,0,1,39.67,39.35V19.76Z"
                      transform="translate(-5.68 -6.82)" fill="#ffa685"/>
                <path d="M37.84,33.22a5,5,0,1,0,0,9.93h8.08l-.3-9.93Z" transform="translate(-5.68 -6.82)"
                      fill="#ffa685"/>
                <path d="M79.29,6.82H50.72a14,14,0,0,0-11.28,5.66,5.45,5.45,0,0,0-4.39-2.23,5.79,5.79,0,0,0-1.68.26l1.57,1.57a7,7,0,0,1,1.78,4.3v3s0,.08,0,.11V33.26h2v3.55a3,3,0,1,0,5.9,0V34.68a4.78,4.78,0,0,1,4.68-3.93V24.91A4.74,4.74,0,0,1,53.93,21v0H74.18a6.29,6.29,0,0,0,6.25-5.66H75.28A14.08,14.08,0,0,0,79.29,6.82Z"
                      transform="translate(-5.68 -6.82)" fill="#0e0f2d"/>
                <path d="M69.81,31.54a1.19,1.19,0,1,1-1.18-1.18A1.18,1.18,0,0,1,69.81,31.54Z"
                      transform="translate(-5.68 -6.82)" fill="#0e0f2d"/>
                <path d="M57.1,31.54a1.19,1.19,0,1,1-1.19-1.18A1.19,1.19,0,0,1,57.1,31.54Z"
                      transform="translate(-5.68 -6.82)" fill="#0e0f2d"/>
                <path d="M55.75,49.47a5.85,5.85,0,1,1,11.69,0Z" transform="translate(-5.68 -6.82)" fill="#f7f3e8"/>
            </g>
        </g>
    </g>
</svg>